<svg width="18" height="33" viewBox="0 0 18 33" fill="none" xmlns="http://www.w3.org/2000/svg">
<path d="M10.2857 12.8333H18L17.1429 16.5H10.2857V33H6.85714V16.5H0V12.8333H6.85714V9.40133C6.85714 6.1325 7.176 4.94633 7.77257 3.751C8.35716 2.56998 9.26024 1.60418 10.3646 0.979C11.4823 0.341 12.5914 0 15.648 0C16.5429 0 17.328 0.0916668 18 0.275V3.66667H15.648C13.3783 3.66667 12.6874 3.80967 11.9829 4.213C11.4617 4.51 11.0743 4.92433 10.7966 5.48167C10.4194 6.23517 10.2857 6.974 10.2857 9.40133V12.8333Z" fill="black"/>
</svg>
