<svg width="35" height="37" viewBox="0 0 35 37" fill="none" xmlns="http://www.w3.org/2000/svg">
<path d="M12.9412 31.3174C5.1 33.8952 5.1 26.7142 2 25.7936M23.8824 35V28.5555C23.8824 26.7142 24.0647 25.9777 22.9706 24.873C28.0765 24.3206 33 22.2952 33 13.8253C32.9978 11.6249 32.1476 9.51173 30.6294 7.93318C31.3414 6.02187 31.2759 3.90378 30.4471 2.04109C30.4471 2.04109 28.4412 1.4887 24.0647 4.43475C20.3579 3.45995 16.4656 3.45995 12.7588 4.43475C8.38235 1.4887 6.37647 2.04109 6.37647 2.04109C5.54764 3.90378 5.48209 6.02187 6.19412 7.93318C4.67594 9.51173 3.82575 11.6249 3.82353 13.8253C3.82353 22.2952 8.74706 24.3206 13.8529 24.873C12.7588 25.9777 12.7588 27.0825 12.9412 28.5555V35" stroke="black" stroke-width="2.5" stroke-linecap="round" stroke-linejoin="round"/>
</svg>
