<svg width="33" height="30" viewBox="0 0 33 30" fill="none" xmlns="http://www.w3.org/2000/svg">
<path d="M33 3.52941C31.7854 4.14706 30.4761 4.55294 29.1195 4.74706C30.5076 3.81176 31.5803 2.32941 32.0851 0.547059C30.7758 1.42941 29.3246 2.04706 27.7945 2.4C26.5483 0.882353 24.7973 0 22.8098 0C19.1028 0 16.0741 3.38824 16.0741 7.57059C16.0741 8.17059 16.1372 8.75294 16.2476 9.3C10.6319 8.98235 5.63145 5.96471 2.30306 1.39412C1.71941 2.50588 1.38815 3.81176 1.38815 5.18824C1.38815 7.81765 2.57122 10.1471 4.40105 11.4706C3.28107 11.4706 2.23996 11.1176 1.32505 10.5882V10.6412C1.32505 14.3118 3.65966 17.3824 6.75143 18.0706C5.7588 18.3745 4.71669 18.4168 3.70698 18.1941C4.13542 19.6985 4.97451 21.0148 6.10629 21.9581C7.23807 22.9014 8.60563 23.4242 10.0167 23.4529C7.62475 25.5714 4.65975 26.7164 1.60899 26.7C1.07266 26.7 0.536329 26.6647 0 26.5941C2.99713 28.7471 6.56214 30 10.3795 30C22.8098 30 29.6401 18.4588 29.6401 8.45294C29.6401 8.11765 29.6401 7.8 29.6243 7.4647C30.9493 6.40588 32.0851 5.06471 33 3.52941Z" fill="black"/>
</svg>
